<svg role="img" width="230px" height="42px" id="Capa_1" data-name="Capa_1" xmlns="http://www.w3.org/2000/svg" viewBox="0 0 421.09 76.61"><style>.txtEntorno{font:700 21px Arial;fill:#666}</style><title>Logotipo Organismo. Sede electrónica</title><polygon points="42.37 0.96 8.65 0.96 51.77 75.65 85.49 75.65 42.37 0.96" style="fill:#34459b"></polygon><path d="M28.85,65.62c9.45-4,13-6,20.45-11.58s17.75-14.1,24.1-23.1S79.88,18.81,79.17,13c2.19,3.59,3.7,6.17,4.45,7.64.31,5-.75,8-3.5,12.85-2.89,5.06-11.07,14.93-22.9,24.08S38.85,70.59,30,73.28c-8.54,2.6-13.1,3-18.88,1.43-1.2-2-2.47-4.17-3.67-6.22C12.42,69.34,20,69.11,28.85,65.62Z" style="fill:#edc333"></path><path d="M22.24,35.15c-9.78,10.86-15.59,22.21-16,31L1.48,58c.67-9,6.69-20,16.62-29.95Z" style="fill:#c2372a"></path><path d="M96.28,48.29l0-1.51a11.16,11.16,0,0,1,1.34-.33,5.64,5.64,0,0,0,1.86-.6,3.89,3.89,0,0,0,.8-1.28l4-11.69,4.72-13.75h2.16l.18.4,3.46,9.11c.78,1.94,1.49,3.81,2.11,5.63s1.16,3.31,1.61,4.46c.27.69.63,1.73,1.09,3.12.24.75.61,1.69,1.1,2.83a3.15,3.15,0,0,0,.6,1.08,2.13,2.13,0,0,0,1.16.45,6.82,6.82,0,0,1,1.74.5,8.27,8.27,0,0,1,.1,1.09c0,.1,0,.26,0,.49-1,0-2.06-.06-3.24-.16s-2.25-.15-3.19-.15-1.8,0-2.27,0l-3.38.2-1,0c0-.51,0-1,.06-1.48l2.21-.53a4,4,0,0,0,1.16-.44.76.76,0,0,0,.2-.51,2.21,2.21,0,0,0-.1-.6L114,42.53l-1.57-4.33-7.6,0c-.28.7-.86,2.44-1.75,5.2a6.61,6.61,0,0,0-.38,1.59,1,1,0,0,0,.28.82,3.32,3.32,0,0,0,1.75.59l1.42.25c0,.53,0,.9,0,1.1a4.75,4.75,0,0,1,0,.51c-.83,0-2.79-.12-5.9-.37l-.81.15a15.59,15.59,0,0,1-2.81.27Zm9.37-12.44c3.1,0,4.93.07,5.48.07l.5,0q-.6-2-1.55-4.59c-.64-1.75-1.16-3.08-1.55-4Zm23.66,15.42a7.64,7.64,0,0,1-3.58-1.76,3.28,3.28,0,0,1-.9-2.24,2.21,2.21,0,0,1,.48-1.53,35.89,35.89,0,0,1,4.36-3A8.84,8.84,0,0,1,127,40.23a6,6,0,0,1-1-3.14,9.63,9.63,0,0,1,.52-3,7.58,7.58,0,0,1,3.06-3.37,9.87,9.87,0,0,1,5-1.12,10.85,10.85,0,0,1,2.13.18,8.88,8.88,0,0,1,1.4.48l.75.31a13.49,13.49,0,0,1,1.78,1.46,21.17,21.17,0,0,0,2.76-.77,4.28,4.28,0,0,1,1.28-.25.73.73,0,0,1,.63.38,4,4,0,0,1,.24,1.77,3.37,3.37,0,0,1-.3,1.69c-.19.32-.4.48-.61.48a2.81,2.81,0,0,1-.7-.31,5.88,5.88,0,0,0-2.17-.73,9.66,9.66,0,0,1,.48,2.9,6,6,0,0,1-.85,3.08,6.25,6.25,0,0,1-2.32,2.33,7.87,7.87,0,0,1-4.1,1.22,14.2,14.2,0,0,1-1.79-.07,17.76,17.76,0,0,1-1.95-.39,11.54,11.54,0,0,0-2.37,1.77,1.14,1.14,0,0,0-.34.84,1.1,1.1,0,0,0,.35.79,2.06,2.06,0,0,0,1.16.49,2.63,2.63,0,0,1,.44.09c.71.06,1.64.09,2.81.09.15,0,.62,0,1.41-.07l.58,0c3.17,0,5.4.56,6.67,1.68a5.29,5.29,0,0,1,1.89,4.11,5.35,5.35,0,0,1-.67,2.56,5.6,5.6,0,0,1-1.8,2,11.44,11.44,0,0,1-3.27,1.41,16.58,16.58,0,0,1-4.59.62,17.71,17.71,0,0,1-4.75-.58,6.69,6.69,0,0,1-3.29-1.88,3,3,0,0,1-.92-2.08,2.8,2.8,0,0,1,.77-1.93A11.59,11.59,0,0,1,129.31,51.27Zm6.11,7A8.6,8.6,0,0,0,140,56.51a2.47,2.47,0,0,0,1-1.79,2.16,2.16,0,0,0-.22-.95,2.57,2.57,0,0,0-.78-.92,3.38,3.38,0,0,0-1.29-.63,12.85,12.85,0,0,0-2.68-.22l-2.45,0c-2.15,0-3.59.29-4.33.88a2.85,2.85,0,0,0-1.11,2.35,2.45,2.45,0,0,0,.62,1.53,4.16,4.16,0,0,0,2.07,1.21,10.86,10.86,0,0,0,3.13.44C134.31,58.37,134.78,58.34,135.42,58.28Zm-1.13-15.9a2.77,2.77,0,0,0,2.27-1.27,6.66,6.66,0,0,0,.95-4c0-2.36-.28-3.95-.85-4.76a2.71,2.71,0,0,0-2.37-1.21,9.75,9.75,0,0,0-1.06.11,2.83,2.83,0,0,0-1.74,1.5,6.7,6.7,0,0,0-.79,3.5c0,.39.05,1.18.14,2.36a4.14,4.14,0,0,0,.3,1.31,5,5,0,0,0,.74,1.34,3,3,0,0,0,1.06.77A3.27,3.27,0,0,0,134.29,42.38Zm13.05-5.81a10.47,10.47,0,0,1,.92-2.5,11,11,0,0,1,2.38-2.84,7.42,7.42,0,0,1,2.28-1.35,7.3,7.3,0,0,1,2.13-.42,11.75,11.75,0,0,1,3,.32,5.73,5.73,0,0,1,1.94.92,9.93,9.93,0,0,1,1.79,1.74,7.61,7.61,0,0,1,1.1,2.08,9.26,9.26,0,0,1,.47,2.9l-2.21,0c-.61,0-1.95-.07-4-.2-.77-.07-1.3-.11-1.59-.11l-2.15,0h-1.72c0,.21,0,.39,0,.54a12.81,12.81,0,0,0,.26,2.47,8.49,8.49,0,0,0,.78,2.28A6.08,6.08,0,0,0,154,44.1a5,5,0,0,0,1.59,1l1.15.42a11.37,11.37,0,0,0,2.05-.11,7.69,7.69,0,0,0,1.68-.56,10.23,10.23,0,0,0,1.77-1.16c.47.38.87.73,1.19,1a11.7,11.7,0,0,1-3.63,3.1,10,10,0,0,1-6.78.66,7.72,7.72,0,0,1-2.41-1.22,7.89,7.89,0,0,1-1.85-2,9.9,9.9,0,0,1-1.16-2.5,10.06,10.06,0,0,1-.49-2.7A20.33,20.33,0,0,1,147.34,36.57Zm11.57-.94a7,7,0,0,0-.44-2.37,3.69,3.69,0,0,0-1.29-1.77,3.05,3.05,0,0,0-1.77-.64A3.1,3.1,0,0,0,153,32.16a6,6,0,0,0-1.22,3.54l4.54,0c.29,0,.71,0,1.24-.06q.57-.06.81-.06Zm6.65,11.57a3.57,3.57,0,0,1,1-.36,4.56,4.56,0,0,0,1.27-.33,1,1,0,0,0,.4-.49,9.51,9.51,0,0,0,.12-2V42.15l0-1.57-.06-2.33v-1.4a10.87,10.87,0,0,0-.2-2.28,1.32,1.32,0,0,0-.5-.66,6.23,6.23,0,0,0-1.89-.87l0-1.06a2.5,2.5,0,0,1,.47-.12c.14,0,.67-.16,1.6-.43a13.71,13.71,0,0,0,1.41-.62l.32-.2a6.4,6.4,0,0,1,.54-.44,8.27,8.27,0,0,0,1.43-1.62l1.08-.08,0,2.5a5.08,5.08,0,0,0,0,.59c0,.12,0,.46,0,1a11.37,11.37,0,0,1,3-2.21,8,8,0,0,1,3.36-.82,5.4,5.4,0,0,1,3.28,1A4.8,4.8,0,0,1,184,33a21.06,21.06,0,0,1,.44,5.45l-.08,7.23a1.88,1.88,0,0,0,.16.84,3.14,3.14,0,0,0,1.1.31l1,.21a1.28,1.28,0,0,1,.18.7c0,.17,0,.41,0,.72l-3.9-.31-1.16,0h-.91l-2.63.2h-.68c0-.18,0-.33,0-.43s0-.53,0-.83c.19-.05.65-.12,1.4-.22a3.61,3.61,0,0,0,.65-.16c.27-.12.42-.23.46-.35a4.17,4.17,0,0,0,.16-1.44c0-1.24,0-2.19,0-2.86l0-2.57c0-3.11-.18-5.06-.53-5.82A2.43,2.43,0,0,0,177.31,32a4.9,4.9,0,0,0-2.3.63,10.27,10.27,0,0,0-2.46,1.91l0,.38,0,1.39,0,1.48.08,3.54,0,.56a15.22,15.22,0,0,0,.26,4.07c.17.31.83.65,2,1a4,4,0,0,1,.06.55,3.84,3.84,0,0,1-.14.82l-1,0a9,9,0,0,1-1.32-.15l-2.13,0c-1.07,0-2.6,0-4.61.15a1.39,1.39,0,0,1-.08-.46C165.54,47.78,165.55,47.55,165.56,47.2Zm38.74-4.67a2.57,2.57,0,0,0,.48.27,2.19,2.19,0,0,1,.73.55,6.88,6.88,0,0,1-2.6,3.83,8.27,8.27,0,0,1-5.24,1.61,9.19,9.19,0,0,1-3.94-.92,8.27,8.27,0,0,1-3.11-2.46,8.17,8.17,0,0,1-1.34-2.88,11.62,11.62,0,0,1-.45-2.89,11.44,11.44,0,0,1,.56-3.27,10.11,10.11,0,0,1,1.87-3.44,9.48,9.48,0,0,1,3.31-2.56,10.32,10.32,0,0,1,4.51-.95c2.3,0,3.9.4,4.8,1.19A3.31,3.31,0,0,1,205.23,33a2.89,2.89,0,0,1-.54,1.85,1.84,1.84,0,0,1-1.51.67,2.28,2.28,0,0,1-1.5-.59,4.38,4.38,0,0,1-1.14-2,3.33,3.33,0,0,0-.92-1.48,2.11,2.11,0,0,0-1.33-.44,4.28,4.28,0,0,0-3.35,1.78,7.39,7.39,0,0,0-1.47,4.85,9,9,0,0,0,1.8,5.88,5.26,5.26,0,0,0,4.09,2.18,5.73,5.73,0,0,0,1.93-.29,6.72,6.72,0,0,0,1.36-.86,7.89,7.89,0,0,0,.82-1ZM207,48.31l0-1.44,2.25-.33a1.19,1.19,0,0,0,.68-.46,2.88,2.88,0,0,0,.19-1.33V44.5c0-.17,0-.5,0-1s0-.87,0-1.23,0-.82-.06-1.61l0-1.11,0-1,.06-3.6a8.78,8.78,0,0,0-.12-1.42,1.72,1.72,0,0,0-.8-.57,7.18,7.18,0,0,0-2-.36V31.36a8.71,8.71,0,0,0,3.6-.95,8.35,8.35,0,0,0,2.29-1.88h1.33q.07,2.74.08,7.13l-.14,9c0,.62,0,1.18.08,1.68a11.22,11.22,0,0,0,2,.49,3.92,3.92,0,0,1,.86.22l0,1.22-.8,0c-.19,0-.5,0-.91-.05-1.35-.07-3.16-.11-5.42-.11-.65,0-1.28,0-1.89.08S207.23,48.31,207,48.31Zm2.78-26.39a2.82,2.82,0,0,1,.7-2,2.3,2.3,0,0,1,1.79-.76,2.6,2.6,0,0,1,1.95.81,2.53,2.53,0,0,1,.78,1.82,3.84,3.84,0,0,1-.31,1.5,2.6,2.6,0,0,1-1,1.21,2.38,2.38,0,0,1-1.36.45,2.35,2.35,0,0,1-1.76-.9A3.16,3.16,0,0,1,209.79,21.92Zm26.46,22.23.46.33a.64.64,0,0,1,.22.38l0,.11a5.65,5.65,0,0,1-1.26,2.71,2.69,2.69,0,0,1-1.93.74,3,3,0,0,1-2-.72,6.25,6.25,0,0,1-1.54-2.53,5.79,5.79,0,0,1-2.41,2.53,7.76,7.76,0,0,1-3.8.85,4.21,4.21,0,0,1-3.05-1,3.4,3.4,0,0,1-1-2.53,4.22,4.22,0,0,1,.28-1.49,5.2,5.2,0,0,1,.94-1.49,9,9,0,0,1,2.08-1.62c.15-.09.65-.34,1.51-.76l5-2.21c0-.56.06-1.13.06-1.7a8.61,8.61,0,0,0-.66-4.07,1.49,1.49,0,0,0-1.39-.67,4,4,0,0,0-1.83.42,2.85,2.85,0,0,0-1.22,1.09,6,6,0,0,0-.47,1.83,3.81,3.81,0,0,1-.26,1.13,2.57,2.57,0,0,1-1.09.77c-.52.22-.88.39-1.06.49a3.92,3.92,0,0,1-1.71.58,1,1,0,0,1-.28-.75,4.7,4.7,0,0,1,.47-2.17A9.05,9.05,0,0,1,222.46,32a10.15,10.15,0,0,1,2.7-1.69,12.45,12.45,0,0,1,4.18-.62,5.5,5.5,0,0,1,2.74.65,3.49,3.49,0,0,1,1.59,1.94,15.92,15.92,0,0,1,.45,4.62l0,3.65,0,2.68v.68a2.63,2.63,0,0,0,.22,1.27.68.68,0,0,0,.58.35.53.53,0,0,0,.37-.14l.6-1ZM229.72,39a12.1,12.1,0,0,0-2.56,1.4,6.37,6.37,0,0,0-2,2,3.79,3.79,0,0,0-.4,1.79,2.38,2.38,0,0,0,.52,1.57,1.51,1.51,0,0,0,1.2.62,2.71,2.71,0,0,0,1.89-.7,4.28,4.28,0,0,0,1.23-1.52,15.61,15.61,0,0,0,.18-3.2C229.8,40.31,229.77,39.67,229.72,39Zm20-20.6h1.23c.1.17.16.29.2.36a7.48,7.48,0,0,0,.86,1.41,23.64,23.64,0,0,0,2.73.07l2.72,0,.4,0,2.41,0,4.5,0h6.15l1.17-.18a2.42,2.42,0,0,0,.56-1.07c.05-.13.13-.32.22-.56l.88,0,.59,0c0,1,0,2.55,0,4.6l0,2,0,1.13a4.83,4.83,0,0,1-.08,1,6.94,6.94,0,0,1-1.43.36,15.89,15.89,0,0,1-1.13-2.5,10.06,10.06,0,0,0-.77-1.82,1.06,1.06,0,0,0-.55-.37,37.21,37.21,0,0,0-4.23-.11,13.45,13.45,0,0,0-1.4.09,11.83,11.83,0,0,0-.1,1.41l0,3v6.5l.06,7,0,2.88a8.33,8.33,0,0,0,.24,2.3,4.92,4.92,0,0,0,1.18.28l1.48.36a7.32,7.32,0,0,1,1.06.35c.07.53.1.86.1,1a3.9,3.9,0,0,1-.06.58l-.72,0a31.34,31.34,0,0,1-3.48-.16c-1-.11-2.69-.17-5.2-.17-.39,0-1.56.09-3.5.27-.76.05-1.25.08-1.47.08,0-.22,0-.39,0-.5l0-.51v-.18a2.68,2.68,0,0,1,1.65-1,13.86,13.86,0,0,0,2.87-1,3.15,3.15,0,0,0,.24-1.1q.14-2.66.13-8.45l-.1-8.36a40.77,40.77,0,0,0-.11-4.18.6.6,0,0,0-.14-.3.43.43,0,0,0-.28-.12q-.61-.09-4-.09A5.38,5.38,0,0,0,252,23a12.8,12.8,0,0,0-2.57,3c-.33.48-.58.71-.74.71a4.32,4.32,0,0,1-1.17-.86,47.6,47.6,0,0,0,1.71-5.75C249.44,19.29,249.6,18.72,249.69,18.42Zm24.39,28.77a1.4,1.4,0,0,1,.67-.36,5.72,5.72,0,0,0,1.93-.89,18.32,18.32,0,0,0,.18-3.57q0-5.59-.22-7.56a1,1,0,0,0-.32-.62,5.27,5.27,0,0,0-1.35-.5.65.65,0,0,1-.48-.49l-.06-.82a5.81,5.81,0,0,0,2.67-1.12,7.11,7.11,0,0,0,1.79-1.82,5.77,5.77,0,0,1,.56-.77l1.39-.05a4.27,4.27,0,0,1,.1.84c0,.16,0,.36,0,.6,0,.52,0,.94,0,1.28,0,.16,0,.78,0,1.84a22.78,22.78,0,0,1,1.2-2.08A14.8,14.8,0,0,1,283.17,30a2.4,2.4,0,0,1,1.54-.55,2.49,2.49,0,0,1,1.83.8,2.57,2.57,0,0,1,.77,1.83,3.14,3.14,0,0,1-.58,1.87,1.83,1.83,0,0,1-1.57.83,2.83,2.83,0,0,1-1.79-.79,1.56,1.56,0,0,0-.89-.49l-.14,0a1.55,1.55,0,0,0-.76.84,5,5,0,0,0-.56,2.29l0,.6q.09,1.62.12,7.65a2.89,2.89,0,0,0,.38,1.1,2.45,2.45,0,0,0,.73.44,5.85,5.85,0,0,0,1.28.22,2.28,2.28,0,0,1,1.12.28.85.85,0,0,1,.19.62,2.36,2.36,0,0,1-.11.65h-1.88l-3.8-.2a23.24,23.24,0,0,0-2.61.13h-.33l-2.07.11a3.58,3.58,0,0,1-.06-.55A3.28,3.28,0,0,1,274.08,47.19ZM288,48.31l0-1.44,2.25-.33a1.26,1.26,0,0,0,.69-.46,3,3,0,0,0,.19-1.33V44.5c0-.17,0-.5,0-1s0-.87,0-1.23,0-.82-.06-1.61l0-1.11,0-1,.06-3.6a8.78,8.78,0,0,0-.12-1.42,1.76,1.76,0,0,0-.81-.57,7.11,7.11,0,0,0-2-.36V31.36a8.62,8.62,0,0,0,3.6-.95A8.2,8.2,0,0,0,294,28.53h1.34q.08,2.74.08,7.13l-.14,9a14.34,14.34,0,0,0,.08,1.68,11.22,11.22,0,0,0,2,.49,4,4,0,0,1,.85.22l0,1.22-.79,0c-.2,0-.51,0-.92-.05-1.35-.07-3.16-.11-5.42-.11-.65,0-1.28,0-1.89.08S288.18,48.31,288,48.31Zm2.79-26.39a2.81,2.81,0,0,1,.69-2,2.34,2.34,0,0,1,1.8-.76,2.6,2.6,0,0,1,1.95.81,2.56,2.56,0,0,1,.77,1.82,3.84,3.84,0,0,1-.31,1.5,2.58,2.58,0,0,1-1,1.21,2.43,2.43,0,0,1-1.36.45,2.36,2.36,0,0,1-1.77-.9A3.2,3.2,0,0,1,290.74,21.92Zm8.86-.27,1.69-.7c.43-.18,1.54-.79,3.34-1.84h.88a5.32,5.32,0,0,1,.6,0c0,.43,0,.73,0,.89l0,.91.12,8.33,0,3.19A9.91,9.91,0,0,1,307.72,31a8.46,8.46,0,0,1,1.09-.63,6.77,6.77,0,0,1,1.44-.61,7,7,0,0,1,1.69-.24,8,8,0,0,1,3.21.55,7.24,7.24,0,0,1,2.35,1.74,9.26,9.26,0,0,1,1.86,3.3,9.91,9.91,0,0,1,.48,3.3,12,12,0,0,1-.39,2.84,11.63,11.63,0,0,1-1.26,3.09,9,9,0,0,1-1.8,2.12,9.29,9.29,0,0,1-2.68,1.66,9.65,9.65,0,0,1-3.4.42,9.26,9.26,0,0,1-5-1.82c-.48-.32-.82-.54-1-.66-.26.43-.56,1-.88,1.55s-.55,1-.67,1.19l-1,0a10.05,10.05,0,0,1,.05-1.09c0-.37.05-.71.05-1l0-1.64.06-.57c0-.24,0-.65,0-1.24V27.05a20.23,20.23,0,0,0-.15-3.16.46.46,0,0,0-.15-.32,19.56,19.56,0,0,0-2-.9Zm6.65,12.12,0,3.46a52.16,52.16,0,0,0,.24,6.85,3.4,3.4,0,0,0,1.33,2,3.68,3.68,0,0,0,2.27.83,4.74,4.74,0,0,0,3.08-1.28,5.15,5.15,0,0,0,1-1.55,9.59,9.59,0,0,0,.68-2.35,21.86,21.86,0,0,0,.17-2.32,10.22,10.22,0,0,0-.66-3.59,5.68,5.68,0,0,0-1.87-2.66,4.41,4.41,0,0,0-2.62-.87,5,5,0,0,0-2.07.55A5.36,5.36,0,0,0,306.25,33.77Zm16-3.36.36-.13h5.93l.44,0,0,1.48L328.94,34l0,1.13,0,3.33v2.28a21.54,21.54,0,0,0,.22,3.51,2.79,2.79,0,0,0,1,1.47,2.67,2.67,0,0,0,1.63.49,4.22,4.22,0,0,0,1.45-.2,4.81,4.81,0,0,0,1.28-.75,5.79,5.79,0,0,0,.93-.79,4.91,4.91,0,0,0,.8-1.31l.13-5.49c0-.58,0-1,0-1.42s0-.86,0-1.44,0-.91,0-1l0-.81,0-.49a2.82,2.82,0,0,0-1.33-.42L333.64,32a.86.86,0,0,1-.22-.15,4.63,4.63,0,0,1-.08-.67,6.78,6.78,0,0,1,.06-.75,7.48,7.48,0,0,1,1.14-.11l3.07,0c.83,0,1.84,0,3,0l0,1.66-.07,2.12,0,2.65v3.8l-.05,1.7,0,1.15c-.06.76-.08,1.2-.08,1.3a1.41,1.41,0,0,0,.18.82c.11.17.23.26.33.26l1.84-.06.23,0c0,.52.06.81.06.88a3,3,0,0,1-.06.49,8.18,8.18,0,0,0-1.51.16,32.78,32.78,0,0,0-4.66,1.57l-.79,0,0-3.6c-.16.14-.4.37-.7.68a12.52,12.52,0,0,1-3,2.34,6,6,0,0,1-2.63.6A5.19,5.19,0,0,1,327,48a4.68,4.68,0,0,1-1.75-1.85,7.22,7.22,0,0,1-.56-2.48c0-.28,0-1.72,0-4.33l0-.7c.07-1.45.1-2.51.1-3.21,0-1.17,0-2-.06-2.36a1.8,1.8,0,0,0-.2-.66,2.33,2.33,0,0,0-.66-.2,5,5,0,0,1-1.59-.47c-.07,0-.1-.14-.1-.28a2.87,2.87,0,0,1,0-.36C322.18,31,322.2,30.75,322.23,30.41ZM345,31.53a11.88,11.88,0,0,0,3.4-2.16,14,14,0,0,0,2.24-3.45h1.11a4.09,4.09,0,0,1,.18,1.22c0,.77,0,1.36,0,1.79l-.06,1.31c0,.07,0,.24,0,.5l.46,0,1.87-.09,1.49-.05a4.9,4.9,0,0,1,0,2.24,5.24,5.24,0,0,1-1,.13,4.33,4.33,0,0,1-.64-.09h-1l-.36,0-1,.07,0,8.45a24.6,24.6,0,0,0,.09,3.06,3.23,3.23,0,0,0,.47,1.16,2.16,2.16,0,0,0,1,.24,2,2,0,0,0,.79-.11,4,4,0,0,0,.88-.64l.38-.31a4.9,4.9,0,0,1,.77.84l.08.27a4.94,4.94,0,0,1-2,1.91,5.43,5.43,0,0,1-2.69.7,3.85,3.85,0,0,1-3-1.3,6,6,0,0,1-1.16-4l.08-3.88V33l-.61,0-1.44,0-.26-.11a.68.68,0,0,1-.11-.37Q345,32.39,345,31.53Zm30,12.62.46.33a.6.6,0,0,1,.22.38l0,.11a5.65,5.65,0,0,1-1.25,2.71,2.7,2.7,0,0,1-1.93.74,3,3,0,0,1-2-.72,6.14,6.14,0,0,1-1.54-2.53,5.9,5.9,0,0,1-2.41,2.53,7.83,7.83,0,0,1-3.81.85,4.18,4.18,0,0,1-3-1,3.41,3.41,0,0,1-1-2.53,4.24,4.24,0,0,1,.29-1.49,4.8,4.8,0,0,1,.94-1.49A9,9,0,0,1,362,40.46c.14-.09.65-.34,1.51-.76l5-2.21c0-.56.06-1.13.06-1.7a8.61,8.61,0,0,0-.66-4.07,1.51,1.51,0,0,0-1.4-.67,4,4,0,0,0-1.83.42,2.82,2.82,0,0,0-1.21,1.09,5.66,5.66,0,0,0-.48,1.83,3.49,3.49,0,0,1-.26,1.13,2.59,2.59,0,0,1-1.08.77c-.53.22-.88.39-1.07.49a3.88,3.88,0,0,1-1.71.58,1,1,0,0,1-.28-.75,4.57,4.57,0,0,1,.48-2.17A9.05,9.05,0,0,1,361.18,32a9.85,9.85,0,0,1,2.7-1.69,12.4,12.4,0,0,1,4.18-.62,5.46,5.46,0,0,1,2.73.65,3.46,3.46,0,0,1,1.6,1.94,16,16,0,0,1,.44,4.62l0,3.65,0,2.68v.68a2.49,2.49,0,0,0,.23,1.27.67.67,0,0,0,.58.35.57.57,0,0,0,.37-.14l.6-1ZM368.44,39a12.1,12.1,0,0,0-2.56,1.4,6.37,6.37,0,0,0-2,2,3.67,3.67,0,0,0-.4,1.79,2.32,2.32,0,0,0,.52,1.57,1.49,1.49,0,0,0,1.19.62,2.71,2.71,0,0,0,1.89-.7,4.35,4.35,0,0,0,1.24-1.52,15.61,15.61,0,0,0,.18-3.2C368.52,40.31,368.49,39.67,368.44,39Zm8.42,8.17a1.4,1.4,0,0,1,.67-.36,5.72,5.72,0,0,0,1.93-.89,18.32,18.32,0,0,0,.18-3.57q0-5.59-.22-7.56a1,1,0,0,0-.31-.62,5.51,5.51,0,0,0-1.36-.5.65.65,0,0,1-.48-.49l-.06-.82a5.77,5.77,0,0,0,2.67-1.12,7,7,0,0,0,1.79-1.82,5.77,5.77,0,0,1,.56-.77l1.4-.05a5,5,0,0,1,.09.84c0,.16,0,.36,0,.6,0,.52,0,.94,0,1.28,0,.16,0,.78,0,1.84a22.78,22.78,0,0,1,1.2-2.08A14.8,14.8,0,0,1,386,30a2.42,2.42,0,0,1,1.54-.55,2.49,2.49,0,0,1,1.83.8,2.53,2.53,0,0,1,.77,1.83,3.14,3.14,0,0,1-.58,1.87,1.82,1.82,0,0,1-1.57.83,2.83,2.83,0,0,1-1.79-.79,1.56,1.56,0,0,0-.89-.49l-.14,0a1.55,1.55,0,0,0-.76.84,5,5,0,0,0-.56,2.29l0,.6q.09,1.62.12,7.65a2.89,2.89,0,0,0,.38,1.1,2.45,2.45,0,0,0,.73.44,5.85,5.85,0,0,0,1.28.22,2.28,2.28,0,0,1,1.12.28.85.85,0,0,1,.2.62,2.44,2.44,0,0,1-.12.65h-1.88l-3.8-.2a23.24,23.24,0,0,0-2.61.13h-.33l-2.07.11a3.58,3.58,0,0,1-.06-.55A3.28,3.28,0,0,1,376.86,47.19Zm13.87,1.12,0-1.44,2.25-.33a1.26,1.26,0,0,0,.69-.46,3,3,0,0,0,.19-1.33V44.5c0-.17,0-.5,0-1s0-.87,0-1.23,0-.82-.06-1.61l0-1.11,0-1,.06-3.6a8.78,8.78,0,0,0-.12-1.42A1.78,1.78,0,0,0,393,33a7.27,7.27,0,0,0-2-.36V31.36a8.62,8.62,0,0,0,3.6-.95,8.2,8.2,0,0,0,2.29-1.88h1.34q.07,2.74.08,7.13l-.14,9a14.34,14.34,0,0,0,.08,1.68,11.22,11.22,0,0,0,2,.49,3.82,3.82,0,0,1,.85.22l0,1.22-.79,0c-.2,0-.5,0-.92-.05-1.35-.07-3.15-.11-5.42-.11-.65,0-1.28,0-1.89.08S391,48.31,390.73,48.31Zm2.79-26.39a2.81,2.81,0,0,1,.69-2,2.34,2.34,0,0,1,1.8-.76A2.6,2.6,0,0,1,398,20a2.52,2.52,0,0,1,.77,1.82,4,4,0,0,1-.3,1.5,2.66,2.66,0,0,1-1,1.21,2.4,2.4,0,0,1-1.36.45,2.33,2.33,0,0,1-1.76-.9A3.16,3.16,0,0,1,393.52,21.92ZM420,44.15l.46.33a.6.6,0,0,1,.22.38l0,.11a5.65,5.65,0,0,1-1.25,2.71,2.7,2.7,0,0,1-1.93.74,3,3,0,0,1-2-.72,6.14,6.14,0,0,1-1.54-2.53,5.9,5.9,0,0,1-2.41,2.53,7.83,7.83,0,0,1-3.81.85,4.18,4.18,0,0,1-3-1,3.41,3.41,0,0,1-1-2.53,4.24,4.24,0,0,1,.29-1.49,4.8,4.8,0,0,1,.94-1.49A9,9,0,0,1,407,40.46c.14-.09.65-.34,1.51-.76l4.95-2.21c.05-.56.07-1.13.07-1.7a8.61,8.61,0,0,0-.66-4.07,1.51,1.51,0,0,0-1.4-.67,4,4,0,0,0-1.83.42,2.82,2.82,0,0,0-1.21,1.09,5.66,5.66,0,0,0-.48,1.83,3.49,3.49,0,0,1-.26,1.13,2.59,2.59,0,0,1-1.08.77c-.53.22-.88.39-1.07.49a3.88,3.88,0,0,1-1.71.58,1,1,0,0,1-.28-.75,4.57,4.57,0,0,1,.48-2.17A9.05,9.05,0,0,1,406.19,32a9.85,9.85,0,0,1,2.7-1.69,12.4,12.4,0,0,1,4.18-.62,5.46,5.46,0,0,1,2.73.65,3.46,3.46,0,0,1,1.6,1.94,15.92,15.92,0,0,1,.45,4.62l-.05,3.65.05,2.68v.68a2.51,2.51,0,0,0,.22,1.27.67.67,0,0,0,.58.35.55.55,0,0,0,.37-.14l.6-1ZM413.45,39a12.1,12.1,0,0,0-2.56,1.4,6.37,6.37,0,0,0-2,2,3.67,3.67,0,0,0-.4,1.79,2.32,2.32,0,0,0,.52,1.57,1.49,1.49,0,0,0,1.19.62,2.71,2.71,0,0,0,1.89-.7,4.35,4.35,0,0,0,1.24-1.52,16.44,16.44,0,0,0,.18-3.2C413.53,40.31,413.5,39.67,413.45,39Z" style="fill:#6d6e6f;"></path><g><text class="txtEntorno" transform="translate(421.09 71.98)" text-anchor="end"><tspan xml:space="preserve">Sede electrónica</tspan></text></g></svg>
